<svg xmlns="http://www.w3.org/2000/svg" viewBox="0 0 116 92">
  <defs>
    <filter id="s" x="-25%" y="-25%" width="150%" height="150%"><feDropShadow dx="0" dy="7" stdDeviation="4" flood-opacity=".42"/></filter>
    <radialGradient id="aura" cx=".5" cy=".5" r=".5"><stop offset="0" stop-color="#69ff9a" stop-opacity=".58"/><stop offset="1" stop-color="#69ff9a" stop-opacity="0"/></radialGradient>
  </defs>
  <circle cx="58" cy="48" r="42" fill="url(#aura)"/>
  <g filter="url(#s)">
    <path d="M18 18h43c10 0 17 6 23 16l15 25c4 7 0 14-8 14H20C9 73 3 66 3 55V38c0-12 6-20 15-20z" fill="#fff" stroke="#050505" stroke-width="7" stroke-linejoin="round"/>
    <path d="M18 18c9 18 25 28 49 31l17 3-10-17c-5-8-11-12-20-12H31z" fill="#111"/>
    <path d="M22 72h68" stroke="#39d36f" stroke-width="8" stroke-linecap="round"/>
    <path d="M36 33h22m-14 9h24m-11-20v23" stroke="#fff" stroke-width="4" stroke-linecap="round"/>
    <path d="M26 74v9m20-9v9m20-9v9m20-9v9" stroke="#050505" stroke-width="6" stroke-linecap="round"/>
    <path d="M22 23h35" stroke="#fff" stroke-width="3" opacity=".7" stroke-linecap="round"/>
  </g>
</svg>
