<svg xmlns="http://www.w3.org/2000/svg" viewBox="0 0 108 82">
  <defs><filter id="s" x="-20%" y="-20%" width="140%" height="140%"><feDropShadow dx="0" dy="5" stdDeviation="3" flood-opacity=".35"/></filter></defs>
  <g filter="url(#s)">
    <path d="M18 17h39c9 0 15 6 20 14l14 23c3 5 0 11-7 11H20c-10 0-16-6-16-14V35c0-10 5-18 14-18z" fill="#fff" stroke="#111" stroke-width="5" stroke-linejoin="round"/>
    <path d="M18 17c8 16 22 25 43 28l15 3-8-14c-4-7-9-11-16-11H29z" fill="#111"/>
    <path d="M21 65h61" stroke="#39b66a" stroke-width="7" stroke-linecap="round"/>
    <path d="M35 31h20m-14 8h21m-10-17v18" stroke="#fff" stroke-width="4" stroke-linecap="round"/>
    <path d="M25 67v8m18-8v8m18-8v8m18-8v8" stroke="#111" stroke-width="5" stroke-linecap="round"/>
  </g>
</svg>
