<svg xmlns="http://www.w3.org/2000/svg" viewBox="0 0 720 1280">
  <defs>
    <linearGradient id="sky" x1="0" y1="0" x2="0" y2="1">
      <stop offset="0" stop-color="#1a1a1a"/>
      <stop offset=".48" stop-color="#101010"/>
      <stop offset="1" stop-color="#050505"/>
    </linearGradient>
    <radialGradient id="light" cx=".5" cy=".05" r=".65">
      <stop offset="0" stop-color="#fff" stop-opacity=".42"/>
      <stop offset=".25" stop-color="#fff" stop-opacity=".12"/>
      <stop offset="1" stop-color="#fff" stop-opacity="0"/>
    </radialGradient>
    <filter id="blur"><feGaussianBlur stdDeviation="18"/></filter>
  </defs>
  <rect width="720" height="1280" fill="url(#sky)"/>
  <rect width="720" height="600" fill="url(#light)"/>
  <g opacity=".45">
    <path d="M20 142 144 30l36 420H92zM700 142 576 30l-36 420h88z" fill="#f5f5f5"/>
    <circle cx="144" cy="84" r="28" fill="#fff"/>
    <circle cx="576" cy="84" r="28" fill="#fff"/>
  </g>
  <g opacity=".18" filter="url(#blur)">
    <ellipse cx="210" cy="230" rx="170" ry="60" fill="#fff"/>
    <ellipse cx="520" cy="320" rx="190" ry="70" fill="#fff"/>
    <ellipse cx="350" cy="520" rx="230" ry="80" fill="#fff"/>
  </g>
  <g transform="translate(0 390)">
    <path d="M0 145h720v490H0z" fill="#202020"/>
    <path d="M0 70h720v95H0z" fill="#303030"/>
    <path d="M0 0h720v86H0z" fill="#3a3a3a"/>
    <g stroke="#111" stroke-width="8" opacity=".65">
      <path d="M0 165h720M0 250h720M0 335h720M0 420h720M0 505h720"/>
      <path d="M54 0v635M152 0v635M250 0v635M348 0v635M446 0v635M544 0v635M642 0v635"/>
    </g>
    <g opacity=".9">
      <path d="M64 38h102v58H64z" fill="#fff"/>
      <path d="M115 38h51v58h-51z" fill="#111"/>
      <path d="M280 98h120v62H280z" fill="#111"/>
      <path d="M340 98h60v62h-60z" fill="#fff"/>
      <path d="M520 30h126v66H520z" fill="#fff"/>
      <path d="M562 30h42v66h-42z" fill="#111"/>
    </g>
    <g fill="#0c0c0c" opacity=".75">
      <circle cx="40" cy="206" r="11"/><circle cx="87" cy="206" r="10"/><circle cx="138" cy="206" r="12"/><circle cx="203" cy="206" r="11"/><circle cx="296" cy="206" r="10"/><circle cx="360" cy="206" r="12"/><circle cx="428" cy="206" r="10"/><circle cx="501" cy="206" r="12"/><circle cx="580" cy="206" r="10"/><circle cx="650" cy="206" r="12"/>
      <circle cx="64" cy="292" r="10"/><circle cx="122" cy="292" r="12"/><circle cx="185" cy="292" r="11"/><circle cx="274" cy="292" r="12"/><circle cx="328" cy="292" r="10"/><circle cx="412" cy="292" r="12"/><circle cx="478" cy="292" r="10"/><circle cx="556" cy="292" r="12"/><circle cx="620" cy="292" r="11"/><circle cx="692" cy="292" r="10"/>
    </g>
  </g>
  <path d="M0 1120c170-42 338-52 510-22 82 14 149 38 210 74v108H0z" fill="#133d27"/>
  <path d="M70 1195c165-34 360-28 575 18" stroke="#fff" stroke-width="5" opacity=".35" fill="none"/>
</svg>
