<svg xmlns="http://www.w3.org/2000/svg" viewBox="0 0 720 1280">
  <defs>
    <linearGradient id="night" x1="0" y1="0" x2="0" y2="1">
      <stop offset="0" stop-color="#16181b"/>
      <stop offset=".45" stop-color="#090a0c"/>
      <stop offset="1" stop-color="#030303"/>
    </linearGradient>
    <radialGradient id="lamp" cx=".5" cy=".12" r=".45">
      <stop offset="0" stop-color="#fff" stop-opacity=".78"/>
      <stop offset=".18" stop-color="#fff" stop-opacity=".18"/>
      <stop offset="1" stop-color="#fff" stop-opacity="0"/>
    </radialGradient>
    <filter id="blur18"><feGaussianBlur stdDeviation="18"/></filter>
    <filter id="blur8"><feGaussianBlur stdDeviation="8"/></filter>
    <pattern id="cement" width="58" height="58" patternUnits="userSpaceOnUse">
      <rect width="58" height="58" fill="#202124"/>
      <path d="M0 18h58M22 0v58M51 0v58M0 43h58" stroke="#111" stroke-opacity=".45" stroke-width="3"/>
      <circle cx="13" cy="10" r="2" fill="#fff" opacity=".05"/>
      <circle cx="39" cy="31" r="2.5" fill="#000" opacity=".22"/>
      <circle cx="24" cy="49" r="1.8" fill="#fff" opacity=".06"/>
    </pattern>
  </defs>
  <rect width="720" height="1280" fill="url(#night)"/>
  <rect width="720" height="580" fill="url(#lamp)"/>
  <g opacity=".42">
    <path d="M58 96 174 6l42 478H102zM662 96 546 6l-42 478h114z" fill="#d9d9d9"/>
    <path d="M103 130 178 76M617 130 542 76" stroke="#fff" stroke-width="10" opacity=".7"/>
    <circle cx="180" cy="70" r="34" fill="#fff"/>
    <circle cx="540" cy="70" r="34" fill="#fff"/>
  </g>
  <g filter="url(#blur18)" opacity=".24">
    <ellipse cx="230" cy="228" rx="210" ry="70" fill="#fff"/>
    <ellipse cx="510" cy="338" rx="260" ry="84" fill="#fff"/>
    <ellipse cx="330" cy="520" rx="285" ry="86" fill="#fff"/>
  </g>
  <g transform="translate(0 328)">
    <path d="M0 0h720v620H0z" fill="url(#cement)"/>
    <path d="M0 0h720v620H0z" fill="#000" opacity=".18"/>
    <path d="M0 30h720v96H0z" fill="#383a3f"/>
    <path d="M0 126h720v92H0z" fill="#27292d"/>
    <path d="M0 218h720v104H0z" fill="#202225"/>
    <path d="M0 322h720v118H0z" fill="#18191b"/>
    <path d="M0 440h720v180H0z" fill="#101113"/>
    <g stroke="#060606" stroke-width="8" opacity=".75">
      <path d="M0 126h720M0 218h720M0 322h720M0 440h720M0 560h720"/>
      <path d="M72 0v620M164 0v620M258 0v620M352 0v620M446 0v620M540 0v620M632 0v620"/>
    </g>
    <g opacity=".96">
      <path d="M54 44h122v72H54z" fill="#f4f4f4" stroke="#111" stroke-width="7"/>
      <path d="M94 44h42v72H94z" fill="#111"/>
      <path d="M282 96h142v78H282z" fill="#111" stroke="#050505" stroke-width="7"/>
      <path d="M329 96h48v78h-48z" fill="#fff"/>
      <path d="M528 36h134v76H528z" fill="#f4f4f4" stroke="#111" stroke-width="7"/>
      <path d="M572 36h44v76h-44z" fill="#111"/>
    </g>
    <g fill="#050505" opacity=".82">
      <circle cx="34" cy="255" r="12"/><circle cx="83" cy="255" r="10"/><circle cx="142" cy="255" r="13"/><circle cx="206" cy="255" r="11"/><circle cx="292" cy="255" r="12"/><circle cx="358" cy="255" r="13"/><circle cx="428" cy="255" r="10"/><circle cx="502" cy="255" r="13"/><circle cx="580" cy="255" r="11"/><circle cx="654" cy="255" r="13"/>
      <circle cx="61" cy="363" r="10"/><circle cx="124" cy="363" r="13"/><circle cx="194" cy="363" r="11"/><circle cx="274" cy="363" r="13"/><circle cx="342" cy="363" r="10"/><circle cx="417" cy="363" r="13"/><circle cx="487" cy="363" r="11"/><circle cx="562" cy="363" r="13"/><circle cx="632" cy="363" r="11"/><circle cx="697" cy="363" r="10"/>
    </g>
    <g opacity=".18" filter="url(#blur8)">
      <ellipse cx="154" cy="176" rx="170" ry="38" fill="#fff"/>
      <ellipse cx="548" cy="280" rx="200" ry="42" fill="#fff"/>
      <ellipse cx="310" cy="476" rx="185" ry="38" fill="#fff"/>
    </g>
  </g>
  <path d="M0 1134c120-46 288-68 461-46 104 13 190 42 259 84v108H0z" fill="#0f3f28"/>
  <path d="M36 1212c178-42 404-36 650 16" stroke="#fff" stroke-width="6" opacity=".32" fill="none"/>
  <path d="M0 1094h720v186H0z" fill="#000" opacity=".18"/>
</svg>
