<svg xmlns="http://www.w3.org/2000/svg" viewBox="0 0 120 140">
  <defs>
    <filter id="s" x="-20%" y="-20%" width="140%" height="140%"><feDropShadow dx="0" dy="6" stdDeviation="4" flood-opacity=".32"/></filter>
  </defs>
  <g filter="url(#s)">
    <path d="M33 61c-10 7-16 17-16 31 0 26 17 42 42 42s43-17 43-42c0-14-6-25-16-31z" fill="#fff" stroke="#111" stroke-width="5" stroke-linejoin="round"/>
    <path d="M55 60h16l8 64c-6 5-13 8-21 8-7 0-15-2-21-7z" fill="#111"/>
    <path d="M39 64l-16 20 13 10 13-22zm41 0 18 20-13 10-14-22z" fill="#efefef" stroke="#111" stroke-width="4" stroke-linejoin="round"/>
    <path d="M42 31c0-16 11-26 27-26 15 0 26 10 26 26 0 17-10 30-27 30-16 0-26-13-26-30z" fill="#f4c7a1" stroke="#111" stroke-width="5"/>
    <path d="M39 28c5-18 19-25 35-22 15 3 22 14 21 26-16-10-35-8-56-4z" fill="#111"/>
    <circle cx="59" cy="33" r="4" fill="#111"/>
    <circle cx="78" cy="33" r="4" fill="#111"/>
    <path d="M61 46c7 6 16 6 23 0" fill="none" stroke="#111" stroke-width="4" stroke-linecap="round"/>
    <path d="M45 86h47" stroke="#111" stroke-width="5" stroke-linecap="round"/>
    <text x="60" y="109" text-anchor="middle" font-family="Arial Black,Arial" font-size="24" fill="#fff">10</text>
    <path d="M37 128l-7 9h25l3-9zm40 0 3 9h25l-8-9z" fill="#111"/>
    <path d="M30 137h28M79 137h28" stroke="#fff" stroke-width="4" stroke-linecap="round"/>
  </g>
</svg>
