<svg xmlns="http://www.w3.org/2000/svg" viewBox="0 0 128 150">
  <defs>
    <filter id="shadow" x="-25%" y="-25%" width="150%" height="150%"><feDropShadow dx="0" dy="8" stdDeviation="4" flood-opacity=".42"/></filter>
    <linearGradient id="skin" x1="0" y1="0" x2="0" y2="1"><stop offset="0" stop-color="#ffd8b8"/><stop offset="1" stop-color="#e9a778"/></linearGradient>
    <linearGradient id="shirt" x1="0" y1="0" x2="0" y2="1"><stop offset="0" stop-color="#fff"/><stop offset="1" stop-color="#d8d8d8"/></linearGradient>
  </defs>
  <g filter="url(#shadow)">
    <path d="M27 60c-13 10-20 25-19 42 1 27 22 43 56 43 35 0 57-17 57-45 0-17-8-32-22-42z" fill="#fff" stroke="#050505" stroke-width="8" stroke-linejoin="round"/>
    <path d="M38 65h18l6 73c-11-1-20-5-28-11zM72 65h18l7 62c-8 6-17 10-29 11z" fill="#111"/>
    <path d="M57 66h17l5 69c-5 2-10 3-16 3-4 0-8 0-12-1z" fill="url(#shirt)"/>
    <path d="M27 67 8 88l14 15 18-25zM101 67l19 21-14 15-18-25z" fill="#f2f2f2" stroke="#050505" stroke-width="6" stroke-linejoin="round"/>
    <path d="M41 31c0-18 13-29 31-29 17 0 30 11 30 29 0 20-12 34-31 34-18 0-30-14-30-34z" fill="url(#skin)" stroke="#050505" stroke-width="7"/>
    <path d="M38 28C43 8 61-2 79 5c16 6 24 16 23 32-17-12-38-13-64-9z" fill="#101010" stroke="#050505" stroke-width="4" stroke-linejoin="round"/>
    <path d="M45 27c15-7 30-8 48 1" stroke="#fff" stroke-width="4" opacity=".16" stroke-linecap="round"/>
    <circle cx="62" cy="36" r="4.5" fill="#050505"/>
    <circle cx="83" cy="36" r="4.5" fill="#050505"/>
    <path d="M64 52c8 5 17 5 25-1" fill="none" stroke="#050505" stroke-width="4.5" stroke-linecap="round"/>
    <path d="M47 88h50" stroke="#050505" stroke-width="6" stroke-linecap="round"/>
    <path d="M27 75c-10 10-12 22-4 33M101 75c10 10 12 22 4 33" fill="none" stroke="#fff" stroke-width="5" stroke-linecap="round" opacity=".85"/>
    <text x="65" y="114" text-anchor="middle" font-family="Arial Black,Arial" font-size="25" fill="#fff" stroke="#050505" stroke-width="3" paint-order="stroke">10</text>
    <path d="M41 134l-11 12h30l4-12zm30 0 4 12h31l-12-12z" fill="#101010" stroke="#050505" stroke-width="4" stroke-linejoin="round"/>
    <path d="M33 145h27M77 145h29" stroke="#fff" stroke-width="4" stroke-linecap="round"/>
    <path d="M22 56c10 7 21 10 33 10M79 66c12 0 22-4 31-11" fill="none" stroke="#fff" stroke-width="4" opacity=".32" stroke-linecap="round"/>
  </g>
</svg>
