<svg xmlns="http://www.w3.org/2000/svg" viewBox="0 0 190 56">
  <defs><filter id="s" x="-18%" y="-40%" width="136%" height="190%"><feDropShadow dx="0" dy="8" stdDeviation="4" flood-opacity=".45"/></filter></defs>
  <g filter="url(#s)">
    <path d="M12 10h63l9 8 14-8h80c7 0 12 5 12 12v12c0 8-5 13-13 13H104l-12-8-12 8H13C5 47 0 42 0 34V22C0 15 5 10 12 10z" fill="#4b4b4b" stroke="#050505" stroke-width="6" stroke-linejoin="round"/>
    <path d="M10 5h68l8 8 12-8h82c6 0 10 4 10 10v10H0V15C0 9 4 5 10 5z" fill="#62d884" stroke="#050505" stroke-width="5" stroke-linejoin="round"/>
    <path d="M86 6 72 27m26-21-7 21m13-19 13 18" stroke="#111" stroke-width="4" stroke-linecap="round"/>
    <path d="M24 16c9 3 18 2 27-1m82 2c9 2 18 2 28-1" fill="none" stroke="#fff" stroke-width="2.5" opacity=".55" stroke-linecap="round"/>
    <path d="M24 37h44m64 0h34" stroke="#252525" stroke-width="4" stroke-linecap="round"/>
  </g>
</svg>
