<svg xmlns="http://www.w3.org/2000/svg" viewBox="0 0 110 120">
  <defs><filter id="s" x="-20%" y="-20%" width="140%" height="140%"><feDropShadow dx="0" dy="6" stdDeviation="4" flood-opacity=".32"/></filter></defs>
  <g filter="url(#s)">
    <path d="M24 55c-8 8-12 18-12 31 0 18 14 28 41 28s45-11 45-29c0-12-5-23-14-30z" fill="#2a2a2a" stroke="#111" stroke-width="5"/>
    <path d="M37 58h35l8 51c-8 4-16 6-26 6-9 0-18-2-25-6z" fill="#dcdcdc"/>
    <path d="M47 58h15l4 54H43z" fill="#111"/>
    <circle cx="55" cy="31" r="26" fill="#d0a27e" stroke="#111" stroke-width="5"/>
    <path d="M30 29c4-17 19-28 39-20 10 4 15 12 14 23-18-8-35-8-53-3z" fill="#111"/>
    <path d="M42 36h8m18 0h8" stroke="#111" stroke-width="5" stroke-linecap="round"/>
    <path d="M45 51c7-4 15-4 22 0" fill="none" stroke="#111" stroke-width="4" stroke-linecap="round"/>
    <path d="M20 74 5 87m84-13 15 13" stroke="#111" stroke-width="8" stroke-linecap="round"/>
  </g>
</svg>
