<svg xmlns="http://www.w3.org/2000/svg" viewBox="0 0 118 128">
  <defs>
    <filter id="s" x="-25%" y="-25%" width="150%" height="150%"><feDropShadow dx="0" dy="8" stdDeviation="4" flood-opacity=".42"/></filter>
    <linearGradient id="skin" x1="0" y1="0" x2="0" y2="1"><stop offset="0" stop-color="#efbd91"/><stop offset="1" stop-color="#c47d54"/></linearGradient>
  </defs>
  <g filter="url(#s)">
    <path d="M20 57c-10 9-15 22-14 36 1 20 17 31 51 31 35 0 55-13 55-33 0-14-6-26-18-35z" fill="#292929" stroke="#050505" stroke-width="7" stroke-linejoin="round"/>
    <path d="M38 62h18l5 56c-10-1-19-4-26-8zM67 62h18l6 48c-7 5-16 8-27 9z" fill="#dcdcdc"/>
    <path d="M54 62h15l3 56H50z" fill="#111"/>
    <circle cx="61" cy="33" r="29" fill="url(#skin)" stroke="#050505" stroke-width="7"/>
    <path d="M31 32C37 9 58-1 78 8c13 6 20 18 18 33-19-10-40-10-65-9z" fill="#111" stroke="#050505" stroke-width="4"/>
    <path d="M45 39h10m20 0h10" stroke="#050505" stroke-width="6" stroke-linecap="round"/>
    <path d="M48 56c8-6 18-6 26 0" fill="none" stroke="#050505" stroke-width="4.5" stroke-linecap="round"/>
    <path d="M18 75 3 92m94-17 17 17" stroke="#050505" stroke-width="9" stroke-linecap="round"/>
    <path d="M23 63c7 5 14 8 24 9m30 0c10-1 18-4 26-10" stroke="#fff" stroke-width="4" opacity=".25" stroke-linecap="round"/>
  </g>
</svg>
